<?xml version="1.0" standalone="no"?>
<!DOCTYPE svg PUBLIC "-//W3C//DTD SVG 20010904//EN"
 "http://www.w3.org/TR/2001/REC-SVG-20010904/DTD/svg10.dtd">
<svg version="1.0" xmlns="http://www.w3.org/2000/svg"
 width="81.000000pt" height="24.000000pt" viewBox="0 0 81.000000 24.000000"
 preserveAspectRatio="xMidYMid meet">

<g transform="translate(0.000000,24.000000) scale(0.100000,-0.100000)"
fill="#000000" stroke="none">
<path d="M670 225 c0 -9 11 -34 25 -56 l26 -40 -31 -54 c-38 -66 -23 -82 18
-19 l30 46 27 -46 c25 -43 45 -59 45 -36 0 5 -13 31 -29 58 l-29 49 29 47 c16
25 29 50 29 56 0 23 -20 7 -45 -36 l-28 -47 -26 47 c-27 47 -41 58 -41 31z"/>
<path d="M144 120 c0 -63 1 -86 3 -50 4 71 16 92 47 88 19 -3 22 -12 27 -78
l6 -75 -1 74 c-1 59 -5 76 -18 85 -13 8 -23 8 -37 -1 -18 -12 -20 -9 -24 30
-2 23 -3 -10 -3 -73z"/>
<path d="M0 115 l0 -105 39 0 c25 0 43 6 52 18 11 14 11 15 -1 4 -8 -6 -29
-12 -47 -12 -32 0 -33 1 -33 45 0 44 1 45 33 45 18 0 39 -6 47 -12 12 -11 12
-10 0 5 -10 14 -10 21 -2 29 17 17 15 54 -4 72 -8 9 -31 16 -50 16 l-34 0 0
-105z m78 83 c15 -15 15 -51 0 -66 -7 -7 -25 -12 -40 -12 -27 0 -28 2 -28 45
0 43 1 45 28 45 15 0 33 -5 40 -12z"/>
<path d="M601 193 c0 -13 -7 -23 -13 -23 -10 0 -10 -2 -1 -8 7 -4 13 -37 15
-77 3 -61 5 -70 23 -72 16 -1 16 -1 3 3 -26 8 -26 140 0 147 15 4 15 5 0 6 -9
0 -19 11 -21 24 l-4 22 -2 -22z"/>
<path d="M279 153 c-13 -15 -12 -15 9 -2 19 12 25 12 45 0 20 -13 21 -13 8 2
-7 10 -21 17 -31 17 -10 0 -24 -7 -31 -17z"/>
<path d="M420 161 c-8 -6 -17 -8 -20 -6 -3 2 -6 -29 -7 -68 l-1 -72 7 63 c5
34 10 64 12 66 2 2 13 8 24 14 11 6 16 11 10 12 -5 0 -17 -4 -25 -9z"/>
<path d="M474 148 c-19 -23 -19 -23 2 -5 24 20 45 22 64 5 12 -11 12 -10 1 5
-18 23 -44 21 -67 -5z"/>
<path d="M350 115 c0 -9 -9 -15 -24 -15 -39 0 -70 -32 -62 -63 5 -22 12 -27
36 -27 16 0 32 5 36 11 4 8 9 7 15 -2 5 -9 9 10 9 49 0 34 -2 62 -5 62 -3 0
-5 -7 -5 -15z m0 -49 c0 -30 -22 -49 -52 -44 -50 7 -25 68 29 68 18 0 23 -6
23 -24z"/>
<path d="M550 110 c0 -5 -11 -10 -24 -10 -39 0 -70 -32 -62 -63 5 -22 12 -27
36 -27 16 0 32 5 36 11 4 8 9 7 15 -2 5 -9 9 8 9 44 0 31 -2 57 -5 57 -3 0 -5
-4 -5 -10z m0 -44 c0 -30 -22 -49 -52 -44 -50 7 -25 68 29 68 18 0 23 -6 23
-24z"/>
<path d="M101 64 c0 -11 3 -14 6 -6 3 7 2 16 -1 19 -3 4 -6 -2 -5 -13z"/>
</g>
</svg>
